<?xml version="1.0" encoding="UTF-8" standalone="no"?>
<!-- Created with Inkscape (http://www.inkscape.org/) -->

<svg
   xmlns:dc="http://purl.org/dc/elements/1.1/"
   xmlns:cc="http://creativecommons.org/ns#"
   xmlns:rdf="http://www.w3.org/1999/02/22-rdf-syntax-ns#"
   xmlns:svg="http://www.w3.org/2000/svg"
   xmlns="http://www.w3.org/2000/svg"
   xmlns:sodipodi="http://sodipodi.sourceforge.net/DTD/sodipodi-0.dtd"
   xmlns:inkscape="http://www.inkscape.org/namespaces/inkscape"
   width="40"
   height="40"
   viewBox="0 0 10.583334 10.583334"
   version="1.1"
   id="svg8"
   inkscape:export-filename="/home/hb/plugin80.png"
   inkscape:export-xdpi="12.8"
   inkscape:export-ydpi="12.8"
   inkscape:version="0.92.4 (unknown)"
   sodipodi:docname="drawing.svg">
  <defs
     id="defs2" />
  <sodipodi:namedview
     id="base"
     pagecolor="#ffffff"
     bordercolor="#666666"
     borderopacity="1.0"
     inkscape:pageopacity="0.0"
     inkscape:pageshadow="2"
     inkscape:zoom="5.6"
     inkscape:cx="35.711539"
     inkscape:cy="13.2657"
     inkscape:document-units="mm"
     inkscape:current-layer="layer1"
     showgrid="false"
     fit-margin-top="0"
     fit-margin-left="0"
     fit-margin-right="0"
     fit-margin-bottom="0"
     units="px"
     inkscape:window-width="1366"
     inkscape:window-height="722"
     inkscape:window-x="0"
     inkscape:window-y="0"
     inkscape:window-maximized="1" />
  <metadata
     id="metadata5">
    <rdf:RDF>
      <cc:Work
         rdf:about="">
        <dc:format>image/svg+xml</dc:format>
        <dc:type
           rdf:resource="http://purl.org/dc/dcmitype/StillImage" />
        <dc:title></dc:title>
      </cc:Work>
    </rdf:RDF>
  </metadata>
  <g
     inkscape:label="Layer 1"
     inkscape:groupmode="layer"
     id="layer1"
     transform="translate(-46.352424,-194.82791)">
    <path
       inkscape:connector-curvature="0"
       id="path828"
       d="m 49.032904,204.81869 c -0.127113,-0.0231 -0.280915,-0.11371 -0.352778,-0.20796 -0.124435,-0.16312 -0.125991,-0.17605 -0.125991,-1.04464 v -0.80446 h 0.60127 0.60127 l -0.007,0.80939 c -0.0069,0.79268 -0.008,0.81157 -0.05923,0.91549 -0.05865,0.11898 -0.199664,0.25723 -0.306819,0.30066 -0.09961,0.0404 -0.235057,0.0525 -0.350759,0.0315 z m 2.236247,5.5e-4 c -0.20975,-0.031 -0.363288,-0.14841 -0.455446,-0.34844 -0.05081,-0.11028 -0.05234,-0.1337 -0.05936,-0.91127 l -0.0073,-0.79806 h 0.614371 0.614372 l -0.0073,0.80939 c -0.0071,0.79665 -0.008,0.81107 -0.06031,0.91625 -0.05752,0.11569 -0.195621,0.25389 -0.293324,0.29345 -0.0985,0.0398 -0.234587,0.0551 -0.34588,0.0386 z m 1.365664,-0.69932 c -0.153584,-0.0937 -0.204898,-0.27514 -0.121757,-0.43064 0.07535,-0.14092 0.149613,-0.16608 0.500044,-0.16936 0.16977,-0.001 0.320981,-0.0106 0.336026,-0.0198 0.03894,-0.024 0.03994,-5.75437 10e-4,-5.77844 -0.01448,-0.009 -0.165559,-0.0178 -0.335709,-0.0196 -0.351191,-0.004 -0.425977,-0.0292 -0.501373,-0.17018 -0.0759,-0.14196 -0.04662,-0.28766 0.082,-0.40787 l 0.06056,-0.0566 0.988702,-0.007 c 0.661354,-0.005 1.016409,0.001 1.072389,0.0175 0.203545,0.0595 0.276678,0.35443 0.127627,0.51472 -0.07882,0.0848 -0.12801,0.096 -0.478356,0.11001 -0.176416,0.007 -0.324794,0.0168 -0.329727,0.0218 -0.0143,0.0142 -0.01055,5.76157 0.0038,5.7759 0.0071,0.007 0.160307,0.0161 0.340444,0.0199 0.180204,0.004 0.348424,0.0182 0.373993,0.0319 0.151895,0.0813 0.212826,0.30494 0.124673,0.45759 -0.08983,0.15556 -0.08753,0.15526 -1.185724,0.1552 -0.942824,-4e-5 -0.987995,-0.003 -1.058635,-0.0451 z m -4.929682,-1.60441 c -0.03736,-0.0231 -0.0883,-0.0649 -0.113196,-0.0929 -0.04434,-0.0499 -0.04541,-0.0873 -0.05134,-1.8009 l -0.0061,-1.75003 0.05971,-0.071 c 0.12334,-0.14657 -0.06567,-0.13724 2.781322,-0.13724 h 2.59342 v 1.94704 1.94706 l -2.597956,-6e-5 c -2.489688,-7e-5 -2.600786,-0.003 -2.665875,-0.0421 z m 1.317879,-0.87275 c 0.03566,-0.0299 0.08982,-0.10896 0.120358,-0.17547 0.03054,-0.0665 0.0648,-0.12756 0.07613,-0.13565 0.02644,-0.019 0.554222,-0.0226 0.710029,-0.005 0.06538,0.008 0.118855,0.0223 0.118855,0.0328 0,0.0105 0.02568,0.0736 0.05708,0.13995 0.06667,0.1408 0.147932,0.19766 0.282528,0.19766 0.169459,0 0.291729,-0.13939 0.265273,-0.30241 -0.0217,-0.13373 -0.77934,-1.80946 -0.843383,-1.86538 -0.08964,-0.0782 -0.280867,-0.0724 -0.371503,0.0119 -0.08136,0.0752 -0.861596,1.78645 -0.861596,1.8897 0,0.0906 0.05683,0.19137 0.130464,0.23133 0.09821,0.0533 0.239923,0.0447 0.315768,-0.0191 z m 0.414091,-0.84609 c 0,-0.0269 0.158878,-0.39864 0.179256,-0.41938 0.01724,-0.0175 0.05919,0.0669 0.158163,0.31819 l 0.0468,0.11886 h -0.192111 c -0.105663,0 -0.192111,-0.008 -0.192111,-0.0177 z m 4.986363,-0.18043 0.0058,-1.9414 0.724484,-0.007 c 0.484078,-0.004 0.744261,0.003 0.784085,0.0186 0.03278,0.0136 0.08882,0.0551 0.124514,0.0925 l 0.06491,0.0678 v 1.76262 1.76263 l -0.0566,0.0613 c -0.109793,0.11898 -0.143151,0.12347 -0.927646,0.12347 h -0.725339 z m -6.269526,-2.19268 c -0.02744,-0.0715 0.01306,-0.58573 0.06047,-0.76752 0.100268,-0.38456 0.305271,-0.72643 0.605218,-1.00926 0.098,-0.0925 0.186363,-0.18147 0.196354,-0.19786 0.01253,-0.0207 -0.07805,-0.1269 -0.294366,-0.34526 l -0.312534,-0.31541 0.08844,-0.0906 c 0.04864,-0.0499 0.09924,-0.0906 0.112444,-0.0906 0.01319,0 0.171593,0.14829 0.351986,0.32954 0.371002,0.37275 0.318089,0.35272 0.633632,0.23974 0.442158,-0.15834 0.916249,-0.15834 1.358408,0 0.315542,0.11292 0.262629,0.13301 0.63363,-0.23974 0.180394,-0.18125 0.338789,-0.32954 0.351987,-0.32954 0.0132,0 0.06379,0.0408 0.112444,0.0906 l 0.08844,0.0906 -0.312534,0.31541 c -0.216309,0.2183 -0.306941,0.3246 -0.294367,0.34526 0.01003,0.0164 0.09836,0.1054 0.196354,0.19786 0.214328,0.2021 0.346208,0.38186 0.467543,0.63731 0.138671,0.29196 0.189035,0.52039 0.191814,0.87003 l 0.0024,0.29432 -2.111859,0.005 c -1.923529,0.005 -2.113104,0.003 -2.125842,-0.0307 z m 1.373724,-0.5738 c 0.200871,-0.13985 0.209605,-0.43415 0.01695,-0.57134 -0.219101,-0.156 -0.53768,0.0106 -0.53768,0.28217 0,0.26582 0.308323,0.43704 0.520723,0.28917 z m 1.788569,0.0319 c 0.124976,-0.0347 0.226402,-0.17853 0.226402,-0.32105 0,-0.24902 -0.264385,-0.41607 -0.489446,-0.30928 -0.276366,0.13113 -0.232685,0.57332 0.06346,0.64245 0.07577,0.0177 0.09687,0.0164 0.199579,-0.0119 z"
       style="opacity:0.98999999;fill:#010100;stroke-width:0.02264013"
       inkscape:export-xdpi="97.129997"
       inkscape:export-ydpi="97.129997" />
  </g>
</svg>
